<svg height='300px' width='300px'  fill="#000000" xmlns="http://www.w3.org/2000/svg" viewBox="0 0 64 64" x="0px" y="0px"><title>Algorithm-schema-structured-Data</title><g><rect x="2" y="56" width="7" height="2"></rect><rect x="6" y="52" width="7" height="2"></rect><rect x="2" y="52" width="2" height="2"></rect><rect x="6" y="60" width="7" height="2"></rect><rect x="2" y="60" width="2" height="2"></rect><rect x="11" y="56" width="2" height="2"></rect><rect x="51" y="56" width="7" height="2"></rect><rect x="55" y="52" width="7" height="2"></rect><rect x="51" y="52" width="2" height="2"></rect><rect x="55" y="60" width="7" height="2"></rect><rect x="51" y="60" width="2" height="2"></rect><rect x="60" y="56" width="2" height="2"></rect><rect x="2" y="7" width="7" height="2"></rect><rect x="6" y="3" width="7" height="2"></rect><rect x="2" y="3" width="2" height="2"></rect><rect x="6" y="11" width="7" height="2"></rect><rect x="2" y="11" width="2" height="2"></rect><rect x="11" y="7" width="2" height="2"></rect><rect x="51" y="7" width="7" height="2"></rect><rect x="55" y="3" width="7" height="2"></rect><rect x="51" y="3" width="2" height="2"></rect><rect x="55" y="11" width="7" height="2"></rect><rect x="51" y="11" width="2" height="2"></rect><rect x="60" y="7" width="2" height="2"></rect><path d="M12.824,16.17A3.994,3.994,0,1,0,9,22.858V41.142a3.993,3.993,0,1,0,3.824,6.688L28.173,56.9a4,4,0,1,0,7.654,0l15.349-9.07A3.994,3.994,0,1,0,55,41.142V22.858a3.993,3.993,0,1,0-3.824-6.688L35.827,7.1A3.965,3.965,0,0,0,36,6a4,4,0,0,0-8,0,3.965,3.965,0,0,0,.173,1.1ZM50,45a3.965,3.965,0,0,0,.173,1.1L34.824,55.17A3.99,3.99,0,0,0,33,54.142V32.571L51.176,21.83A3.99,3.99,0,0,0,53,22.858V41.142A4,4,0,0,0,50,45ZM11,41.142V22.858a3.982,3.982,0,0,0,1.823-1.028L31,32.571V54.142a3.99,3.99,0,0,0-1.824,1.028L13.827,46.1A3.914,3.914,0,0,0,11,41.142ZM50.173,20.1,32,30.838,13.827,20.1a3.584,3.584,0,0,0,0-2.2L29.176,8.83a3.993,3.993,0,0,0,5.648,0L50.173,17.9a3.584,3.584,0,0,0,0,2.2ZM8,19a2,2,0,1,1,2,2A2,2,0,0,1,8,19Zm2,28a2,2,0,1,1,2-2A2,2,0,0,1,10,47ZM32,60a2,2,0,1,1,2-2A2,2,0,0,1,32,60ZM56,45a2,2,0,1,1-2-2A2,2,0,0,1,56,45ZM54,17a2,2,0,1,1-2,2A2,2,0,0,1,54,17ZM32,4a2,2,0,1,1-2,2A2,2,0,0,1,32,4Z"></path><rect x="24.572" y="34.837" width="1.869" height="2" transform="translate(-14.686 17.964) rotate(-30.585)"></rect><rect x="21.354" y="36.739" width="1.869" height="2" transform="translate(-16.101 16.591) rotate(-30.585)"></rect><rect x="27.791" y="32.935" width="1.869" height="2" transform="translate(-13.27 19.337) rotate(-30.585)"></rect><rect x="18.135" y="38.64" width="1.869" height="2" transform="translate(-17.516 15.218) rotate(-30.585)"></rect><rect x="14.917" y="40.542" width="1.869" height="2" transform="translate(-18.932 13.845) rotate(-30.585)"></rect><rect x="47.146" y="40.606" width="2" height="1.869" transform="translate(-12.111 61.859) rotate(-59.421)"></rect><rect x="43.928" y="38.705" width="2" height="1.869" transform="translate(-12.052 58.162) rotate(-59.429)"></rect><rect x="40.71" y="36.804" width="2" height="1.869" transform="translate(-11.999 54.45) rotate(-59.421)"></rect><rect x="34.274" y="33" width="2" height="1.869" transform="translate(-11.886 47.04) rotate(-59.421)"></rect><rect x="37.492" y="34.902" width="2" height="1.869" transform="translate(-11.94 50.751) rotate(-59.429)"></rect><rect x="31" y="27.003" width="2" height="2"></rect><rect x="31" y="23.003" width="2" height="2"></rect><rect x="31" y="19.003" width="2" height="2"></rect><rect x="31" y="15.003" width="2" height="2"></rect><rect x="31" y="11.003" width="2" height="2"></rect></g></svg>