<svg height="300px" width="300px" fill="#000000" xmlns="http://www.w3.org/2000/svg" xmlns:xlink="http://www.w3.org/1999/xlink" xml:space="preserve" version="1.1" style="shape-rendering:geometricPrecision;text-rendering:geometricPrecision;image-rendering:optimizeQuality;" viewBox="0 0 272 272" x="0px" y="0px" fill-rule="evenodd" clip-rule="evenodd"><defs><style type="text/css">
   
    .fil0 {fill:#000000}
   
  </style></defs><g><circle class="fil0" cx="136" cy="136" r="69"/><path class="fil0" d="M122 0c35,20 10,43 29,53 4,-8 10,-13 16,-17 12,-9 11,-15 9,-31 24,32 -8,44 6,60 7,-6 14,-8 22,-10 14,-3 15,-9 19,-25 10,39 -24,37 -17,58 8,-3 15,-2 24,-1 14,3 17,-2 27,-16 -6,40 -37,25 -38,47 9,1 15,4 22,9 12,7 17,4 31,-5 -20,35 -43,10 -52,29 7,4 12,10 17,16 8,12 14,11 30,9 -31,24 -43,-8 -59,6 5,7 8,14 9,22 4,14 9,15 25,19 -38,10 -37,-24 -57,-17 2,8 2,15 0,24 -2,14 3,17 16,27 -39,-6 -25,-37 -47,-38 0,9 -4,15 -8,22 -8,12 -4,17 4,31 -34,-20 -9,-43 -29,-52 -4,7 -9,12 -16,17 -12,8 -10,14 -8,30 -24,-31 8,-43 -7,-59 -6,5 -13,8 -21,9 -14,4 -15,9 -19,25 -10,-38 24,-37 16,-57 -8,2 -15,2 -23,0 -14,-2 -17,3 -27,16 5,-39 36,-25 37,-47 -8,0 -15,-4 -22,-8 -12,-8 -17,-4 -31,4 20,-34 43,-9 53,-29 -8,-4 -13,-9 -17,-16 -9,-12 -15,-10 -31,-8 32,-24 44,8 60,-7 -6,-6 -8,-13 -10,-21 -3,-14 -9,-15 -25,-19 39,-10 37,24 58,16 -3,-8 -2,-15 -1,-23 3,-14 -2,-17 -16,-27 40,5 25,36 47,37 1,-8 4,-15 9,-22 7,-12 4,-17 -5,-31zm14 60c42,0 76,34 76,76 0,42 -34,76 -76,76 -42,0 -76,-34 -76,-76 0,-42 34,-76 76,-76z"/></g></svg>