<svg height='300px' width='300px'  fill="#000000" xmlns="http://www.w3.org/2000/svg" xmlns:xlink="http://www.w3.org/1999/xlink" version="1.1" x="0px" y="0px" viewBox="0 0 765.3 1162.2" enable-background="new 0 0 765.3 1162.2" xml:space="preserve"><g><g><path d="M127.4,1023.3c-5.8-22.8-10.8-43-16-63.2c-1.4-5.4,0.2-10,2.2-14.9c34.8-83.5,69.6-167,104.4-250.5c4.6-11,4.6-11-7.1-11    c-19.6,0-39.2-0.2-58.8,0.1c-5.8,0.1-7.7-1.5-7.8-7.5c-0.7-26.9-0.9-26.9,26.1-26.9c19,0,37.9-0.3,56.9,0.2    c7.2,0.2,10.6-2,13.4-8.8c23.4-57,47.3-113.7,70.7-170.7c2.9-7,5.6-9.1,12-4.4c2,1.5,4.6,2.3,7,3.3c15.8,6.6,15.7,6.6,8.9,23    c-20.6,49.4-41,99-62,148.3c-3.5,8.2-1.6,9.5,6.4,9.4c24.1-0.4,48.2-0.4,72.3,0c7.2,0.1,10.3-1.3,9.8-9.4    c-0.7-11.2,0.2-22.5-0.3-33.7c-0.3-6.6,2.2-7.9,8.3-8c26.2-0.2,26-0.4,26.3,25.6c0.1,8.2-3.8,19.1,1.9,23.9    c4.8,4,15.3,1.4,23.3,1.4c19,0.1,37.9-0.3,56.9,0.2c8.9,0.3,9.2-2.3,6.1-9.6c-22.1-52.3-43.7-104.8-65.8-157.1    c-2.8-6.7-2.4-9.5,5-11.2c4.9-1.1,10-3,14.2-5.9c7.9-5.5,10.2-1.8,13.2,5.4c23.3,56.7,47.1,113.1,70.4,169.7    c2.6,6.3,5.6,8.7,12.6,8.6c25.1-0.4,50.1,0,75.2-0.3c6.1-0.1,8.4,1.5,8.5,8c0.5,26.4,0.8,26.4-25.5,26.4    c-14.5,0-28.9,0.4-43.4-0.2c-7.8-0.3-9.3,1.2-6,8.8c21.3,50.2,42.1,100.6,63.1,150.9c14.2,34,28.3,68.1,42.6,102.1    c2.5,5.9,2.9,11.4,1.2,17.7c-5.2,19.2-9.7,38.5-14.8,59.1c-4.2-9-5.8-17.4-7.5-25.7c-8-39.4-25.4-75.2-40.7-111.9    c-26.7-64.3-53.9-128.3-80.5-192.6c-2.7-6.4-5.9-8.5-12.7-8.4c-28.9,0.4-57.8,0.4-86.7,0c-8.1-0.1-11.5,1.3-10.8,10.3    c0.9,11.2,0,22.5,0.3,33.7c0.2,5.6-1.9,7-7.2,7.2c-27.2,1.1-27,1.3-27.3-25.7c-0.1-8.2,3.8-19.1-1.9-23.9    c-4.8-4-15.3-1.4-23.3-1.5c-24.1-0.1-48.2,0.2-72.3-0.2c-6.3-0.1-9.6,1.6-12.2,7.7c-36.2,87.1-72.9,173.9-109,261.1    c-8,19.3-10.8,40.2-16.6,60.2C129.6,1015.4,128.9,1018.2,127.4,1023.3z"></path><path d="M400,191.4c0,14.1,0.3,28.3-0.2,42.4c-0.2,6.6,1.6,9.2,8.4,10.9c45.7,11.6,77,52.6,76.7,99.8c-0.3,45.8-32.3,86.7-76.7,98    c-54.5,13.8-109.7-18.7-124.1-73c-14.3-54.2,17.7-110.1,72.1-124.3c8.2-2.2,9.7-5.5,9.6-12.9c-0.4-28.3,0-56.5-0.3-84.8    c-0.1-6.2,1.6-8.2,8-8.4c26.4-0.5,26.4-0.7,26.4,25.4C400,173.4,400,182.4,400,191.4z M315,343.6c0.1,37.7,30.8,68.4,68.1,68    c37.8-0.3,67.8-30.7,67.7-68.4c-0.1-37.7-30.5-68.1-68.1-68C345.1,275.4,314.9,305.8,315,343.6z"></path></g></g></svg>